<?xml version="1.0" standalone="no"?>
<!DOCTYPE svg PUBLIC "-//W3C//DTD SVG 20010904//EN"
 "http://www.w3.org/TR/2001/REC-SVG-20010904/DTD/svg10.dtd">
<svg version="1.0" xmlns="http://www.w3.org/2000/svg"
 width="300.000000pt" height="300.000000pt" viewBox="0 0 300.000000 300.000000"
 preserveAspectRatio="xMidYMid meet">
<metadata>
Created by potrace 1.11, written by Peter Selinger 2001-2013
</metadata>
<g transform="translate(0.000000,300.000000) scale(0.100000,-0.100000)"
fill="#000000" stroke="none">
<path d="M0 1500 l0 -1500 1500 0 1500 0 0 1500 0 1500 -1500 0 -1500 0 0
-1500z m1706 1149 c478 -66 826 -408 895 -880 l11 -79 44 0 44 0 -16 -25 c-14
-21 -24 -25 -68 -25 l-52 0 -12 89 c-6 48 -26 131 -42 182 -118 360 -410 609
-803 684 -91 17 -302 20 -394 5 -167 -27 -354 -104 -473 -194 -36 -27 -58 -41
-50 -31 56 67 255 183 394 230 148 50 356 67 522 44z m-891 -920 c-22 -42 -29
-116 -16 -167 15 -53 73 -119 126 -143 53 -25 135 -24 188 1 l42 19 -38 -33
c-165 -147 -428 24 -363 237 13 42 59 117 72 117 2 0 -3 -14 -11 -31z m1084
-9 c-35 -73 -22 -175 32 -244 51 -64 176 -94 256 -61 46 19 53 13 14 -14 -79
-56 -155 -65 -237 -27 -115 53 -164 183 -113 296 17 37 55 90 65 90 1 0 -6
-18 -17 -40z m-1566 0 c23 -20 45 -30 66 -30 26 0 31 -4 31 -25 0 -23 -3 -25
-51 -25 -43 0 -57 5 -86 31 -32 28 -41 30 -90 27 l-54 -3 31 28 c44 39 107 38
153 -3z m2547 15 c65 -34 81 -132 30 -187 l-30 -33 11 32 c28 83 -60 175 -143
152 -38 -10 -35 7 5 31 38 24 87 26 127 5z m-270 -745 c0 -523 0 -530 -20
-530 -20 0 -20 7 -20 530 0 523 0 530 20 530 20 0 20 -7 20 -530z m-1100 -173
c4 4 31 80 60 168 29 88 55 163 59 167 4 4 33 -73 66 -172 33 -99 62 -180 65
-180 3 0 32 77 64 170 33 93 61 169 62 167 2 -1 29 -84 60 -182 31 -99 60
-183 63 -188 4 -4 34 65 66 153 33 88 62 157 66 152 9 -9 80 -254 75 -259 -2
-2 -19 39 -37 91 -19 53 -36 96 -39 96 -3 0 -32 -86 -65 -190 -32 -105 -62
-187 -66 -183 -4 5 -31 73 -60 153 -28 80 -54 151 -58 158 -4 7 -30 -58 -60
-150 -30 -90 -58 -174 -63 -188 -9 -22 -18 -3 -72 155 l-63 179 -63 -189 -64
-190 -61 188 c-43 131 -64 183 -69 170 -4 -10 -30 -82 -56 -161 -27 -78 -53
-150 -58 -158 -7 -12 -25 32 -66 162 -32 99 -61 182 -65 186 -3 4 -33 -67 -65
-158 -33 -91 -62 -161 -66 -157 -6 6 -79 238 -117 368 -4 13 -19 -17 -49 -95
-24 -63 -43 -111 -43 -107 -2 21 83 287 89 280 4 -4 31 -73 59 -153 29 -80 56
-148 60 -153 4 -4 34 78 67 182 37 119 62 184 67 175 4 -7 32 -84 63 -171 30
-86 57 -159 59 -161 2 -2 26 69 55 158 28 89 56 174 62 189 9 23 16 9 70 -152
33 -98 64 -175 68 -170z"/>
</g>
</svg>
