<?xml version="1.0" standalone="no"?>
<!DOCTYPE svg PUBLIC "-//W3C//DTD SVG 20010904//EN"
 "http://www.w3.org/TR/2001/REC-SVG-20010904/DTD/svg10.dtd">
<svg version="1.0" xmlns="http://www.w3.org/2000/svg"
 width="256.000000pt" height="256.000000pt" viewBox="0 0 256.000000 256.000000"
 preserveAspectRatio="xMidYMid meet">
<metadata>
Created by potrace 1.11, written by Peter Selinger 2001-2013
</metadata>
<g transform="translate(0.000000,256.000000) scale(0.100000,-0.100000)"
fill="#000000" stroke="none">
<path d="M0 1280 l0 -1280 1280 0 1280 0 0 1280 0 1280 -1280 0 -1280 0 0
-1280z m1489 800 c148 -30 265 -93 372 -200 73 -73 94 -101 132 -180 43 -89
77 -207 77 -264 0 -22 5 -26 30 -26 17 0 30 -4 30 -9 0 -17 -29 -32 -57 -29
-27 3 -29 7 -44 83 -20 104 -34 146 -75 225 -91 175 -264 308 -468 360 -102
26 -283 27 -393 3 -47 -10 -120 -38 -183 -70 -108 -54 -103 -40 8 23 168 96
370 126 571 84z m-1026 -650 c14 -11 35 -20 47 -20 15 0 20 -5 18 -17 -6 -30
-63 -29 -100 2 -24 20 -40 26 -65 23 -31 -4 -32 -3 -16 14 22 25 83 23 116 -2z
m1822 -5 c27 -26 32 -60 13 -100 -16 -35 -24 -31 -24 11 0 45 -40 84 -86 84
-26 0 -29 2 -18 15 20 25 87 19 115 -10z m-1498 -24 c-30 -111 85 -225 192
-192 47 14 51 7 10 -18 -100 -61 -239 19 -239 136 0 44 25 113 40 113 4 0 3
-18 -3 -39z m773 3 c-40 -103 79 -224 192 -196 43 11 42 0 -4 -24 -63 -33
-153 -7 -202 59 -29 40 -33 123 -6 166 25 39 35 36 20 -5z m520 -489 c0 -368
0 -375 -20 -375 -20 0 -20 7 -20 375 0 368 0 375 20 375 20 0 20 -7 20 -375z
m-790 -125 c3 0 24 54 45 120 21 66 42 117 46 112 4 -4 24 -60 45 -124 21 -65
41 -118 44 -118 3 0 23 52 44 115 22 64 42 112 47 108 4 -4 25 -64 47 -133
l40 -125 14 35 c8 19 27 70 43 113 15 42 31 77 34 77 4 0 15 -30 25 -67 33
-122 32 -122 -14 -8 -11 29 -13 26 -53 -102 -23 -72 -44 -134 -48 -137 -3 -3
-22 44 -43 105 -21 60 -42 111 -46 114 -3 2 -24 -52 -45 -120 -21 -69 -42
-125 -45 -125 -4 0 -25 52 -46 115 -21 63 -41 115 -44 115 -3 0 -24 -54 -45
-120 -21 -66 -42 -120 -45 -120 -3 0 -24 54 -45 120 -21 66 -43 120 -47 120
-4 0 -8 -5 -8 -10 0 -23 -73 -219 -80 -215 -4 2 -24 58 -45 124 -21 66 -41
118 -45 116 -4 -3 -25 -54 -46 -115 -21 -60 -41 -107 -45 -102 -4 4 -24 64
-45 135 -21 70 -41 124 -45 120 -3 -5 -12 -25 -19 -46 -7 -21 -14 -36 -17 -34
-5 6 26 119 37 130 4 5 21 -29 38 -75 59 -162 49 -160 94 -18 22 69 43 128 47
132 4 5 24 -42 45 -102 21 -61 42 -112 45 -115 4 -2 22 42 40 98 56 171 48
169 94 30 23 -68 44 -123 47 -123z"/>
</g>
</svg>
